<?xml version="1.0" encoding="utf-8"?>
<!-- Generator: Adobe Illustrator 24.0.0, SVG Export Plug-In . SVG Version: 6.00 Build 0)  -->
<svg version="1.1" id="Layer_1" xmlns="http://www.w3.org/2000/svg" xmlns:xlink="http://www.w3.org/1999/xlink" x="0px" y="0px"
	 viewBox="0 0 150 40" style="enable-background:new 0 0 150 40;" xml:space="preserve">
<style type="text/css">
	.st0{fill:url(#SVGID_1_);}
	.st1{fill:url(#SVGID_2_);}
	.st2{fill:url(#SVGID_3_);}
	.st3{fill:url(#SVGID_4_);}
	.st4{fill:url(#SVGID_5_);}
	.st5{fill:url(#SVGID_6_);}
	.st6{fill:url(#SVGID_7_);}
	.st7{fill:url(#SVGID_8_);}
	.st8{fill:url(#SVGID_9_);}
	.st9{fill:url(#SVGID_10_);}
</style>
<g>
	<linearGradient id="SVGID_1_" gradientUnits="userSpaceOnUse" x1="36.2391" y1="19.0153" x2="207.1984" y2="-27.8039">
		<stop  offset="0.1293" style="stop-color:#6DC180"/>
		<stop  offset="0.2863" style="stop-color:#3DBFBE"/>
		<stop  offset="0.4162" style="stop-color:#00BEDD"/>
		<stop  offset="0.5486" style="stop-color:#449ED7"/>
		<stop  offset="0.6689" style="stop-color:#459BD5"/>
	</linearGradient>
	<path class="st0" d="M44.7,10c0-1.1,0.2-1.9,0.7-2.3c0.5-0.4,1.3-0.6,2.5-0.6V3c-2.7-0.1-4.8,0.5-6.1,1.6c-1.4,1.1-2,2.9-2,5.2v1
		h-2.2v4h2.2v15.3h5V14.8h3.4v-4h-3.4V10z"/>
	<linearGradient id="SVGID_2_" gradientUnits="userSpaceOnUse" x1="37.0617" y1="22.0189" x2="208.021" y2="-24.8004">
		<stop  offset="0.1293" style="stop-color:#6DC180"/>
		<stop  offset="0.2863" style="stop-color:#3DBFBE"/>
		<stop  offset="0.4162" style="stop-color:#00BEDD"/>
		<stop  offset="0.5486" style="stop-color:#449ED7"/>
		<stop  offset="0.6689" style="stop-color:#459BD5"/>
	</linearGradient>
	<rect x="52.1" y="4.3" class="st1" width="4.9" height="25.9"/>
	<linearGradient id="SVGID_3_" gradientUnits="userSpaceOnUse" x1="42.5403" y1="42.0237" x2="213.4996" y2="-4.7955">
		<stop  offset="0.1293" style="stop-color:#6DC180"/>
		<stop  offset="0.2863" style="stop-color:#3DBFBE"/>
		<stop  offset="0.4162" style="stop-color:#00BEDD"/>
		<stop  offset="0.5486" style="stop-color:#449ED7"/>
		<stop  offset="0.6689" style="stop-color:#459BD5"/>
	</linearGradient>
	<path class="st2" d="M123.1,13.6c-0.7-0.9-1.5-1.6-2.6-2.2c-1.1-0.6-2.3-0.9-3.8-0.9c-1.7,0-3.2,0.4-4.5,1.2
		c-1.3,0.8-2.4,2-3.2,3.5c-0.8,1.5-1.2,3.2-1.2,5.2c0,2,0.4,3.7,1.2,5.3c0.8,1.5,1.8,2.7,3.2,3.5c1.3,0.8,2.8,1.3,4.5,1.3
		c1.4,0,2.7-0.3,3.8-0.9c1.1-0.6,2-1.3,2.6-2.3v2.8h4.9V10.8h-4.9V13.6z M122.4,23.5c-0.5,0.9-1.1,1.5-1.9,2
		c-0.8,0.5-1.6,0.7-2.6,0.7c-0.9,0-1.7-0.2-2.5-0.7c-0.8-0.5-1.4-1.1-1.9-2c-0.5-0.9-0.7-1.9-0.7-3.1c0-1.2,0.2-2.2,0.7-3
		c0.5-0.9,1.1-1.5,1.9-1.9c0.8-0.4,1.6-0.7,2.5-0.7c0.9,0,1.8,0.2,2.6,0.7c0.8,0.5,1.4,1.1,1.9,2c0.5,0.9,0.7,1.9,0.7,3.1
		S122.9,22.7,122.4,23.5z"/>
	<linearGradient id="SVGID_4_" gradientUnits="userSpaceOnUse" x1="43.1781" y1="44.3527" x2="214.1374" y2="-2.4666">
		<stop  offset="0.1293" style="stop-color:#6DC180"/>
		<stop  offset="0.2863" style="stop-color:#3DBFBE"/>
		<stop  offset="0.4162" style="stop-color:#00BEDD"/>
		<stop  offset="0.5486" style="stop-color:#449ED7"/>
		<stop  offset="0.6689" style="stop-color:#459BD5"/>
	</linearGradient>
	<path class="st3" d="M139.4,6h-4.9v4.8h-2.3v4h2.3v9.3c0,4,2.1,6,6.2,6h3.1V26h-2.3c-0.7,0-1.3-0.1-1.6-0.4
		c-0.3-0.3-0.5-0.8-0.5-1.4v-9.4h4.3v-4h-4.3V6z"/>
	<linearGradient id="SVGID_5_" gradientUnits="userSpaceOnUse" x1="39.4043" y1="30.5728" x2="210.3636" y2="-16.2464">
		<stop  offset="0.1293" style="stop-color:#6DC180"/>
		<stop  offset="0.2863" style="stop-color:#3DBFBE"/>
		<stop  offset="0.4162" style="stop-color:#00BEDD"/>
		<stop  offset="0.5486" style="stop-color:#449ED7"/>
		<stop  offset="0.6689" style="stop-color:#459BD5"/>
	</linearGradient>
	<polygon class="st4" points="70.9,24.3 65.9,10.8 60.4,10.8 68.2,29.7 65.4,36.1 70.6,36.1 81.2,10.8 76,10.8 	"/>
	<linearGradient id="SVGID_6_" gradientUnits="userSpaceOnUse" x1="40.9107" y1="36.0733" x2="211.87" y2="-10.7459">
		<stop  offset="0.1293" style="stop-color:#6DC180"/>
		<stop  offset="0.2863" style="stop-color:#3DBFBE"/>
		<stop  offset="0.4162" style="stop-color:#00BEDD"/>
		<stop  offset="0.5486" style="stop-color:#449ED7"/>
		<stop  offset="0.6689" style="stop-color:#459BD5"/>
	</linearGradient>
	<path class="st5" d="M100.4,11.7c-1.3-0.8-2.8-1.2-4.5-1.2c-1.4,0-2.7,0.3-3.8,0.9c-1.1,0.6-2,1.3-2.6,2.2v-2.8h-4.9v25.3h4.9v-8.7
		c0.7,0.9,1.6,1.6,2.6,2.2c1.1,0.6,2.3,0.9,3.8,0.9c1.7,0,3.2-0.4,4.5-1.3c1.3-0.8,2.4-2,3.2-3.5c0.8-1.5,1.2-3.3,1.2-5.3
		c0-2-0.4-3.7-1.2-5.2C102.8,13.7,101.7,12.5,100.4,11.7z M99,23.5c-0.5,0.9-1.1,1.5-1.9,2c-0.8,0.5-1.6,0.7-2.5,0.7
		c-0.9,0-1.7-0.2-2.5-0.7c-0.8-0.5-1.4-1.1-1.9-2c-0.5-0.9-0.7-1.9-0.7-3c0-1.2,0.2-2.2,0.7-3c0.5-0.9,1.1-1.5,1.9-2
		c0.8-0.5,1.6-0.7,2.5-0.7c0.9,0,1.8,0.2,2.5,0.7c0.8,0.4,1.4,1.1,1.9,1.9c0.5,0.9,0.7,1.9,0.7,3C99.8,21.6,99.5,22.6,99,23.5z"/>
	<g>
		<linearGradient id="SVGID_7_" gradientUnits="userSpaceOnUse" x1="8.6568" y1="42.2858" x2="33.1216" y2="10.3096">
			<stop  offset="0.1293" style="stop-color:#6DC180"/>
			<stop  offset="0.2863" style="stop-color:#3DBFBE"/>
			<stop  offset="0.3883" style="stop-color:#00BEDD"/>
			<stop  offset="0.4083" style="stop-color:#14B5DB"/>
			<stop  offset="0.4491" style="stop-color:#37A4D8"/>
			<stop  offset="0.471" style="stop-color:#449ED7"/>
			<stop  offset="0.483" style="stop-color:#3C8DC0"/>
			<stop  offset="0.507" style="stop-color:#2D6D95"/>
			<stop  offset="0.5193" style="stop-color:#276185"/>
		</linearGradient>
		<path class="st6" d="M15.7,23.6l-0.6,1.9c-0.5,1.6-0.5,3.3,0,4.8c0.8,2.6,2.8,4.8,5.7,5.7l2.5-8.3L15.7,23.6L15.7,23.6z"/>
		<linearGradient id="SVGID_8_" gradientUnits="userSpaceOnUse" x1="2.4104" y1="12.7172" x2="53.9152" y2="39.9237">
			<stop  offset="3.388065e-03" style="stop-color:#1F5233"/>
			<stop  offset="0.1812" style="stop-color:#5AA36D"/>
			<stop  offset="0.3752" style="stop-color:#00BEDD"/>
			<stop  offset="0.4266" style="stop-color:#459BD5"/>
		</linearGradient>
		<path class="st7" d="M18,15.2l6.3,3.4c0.8,0.4,1.3,1.4,1,2.3c0,0,0,0,0,0l-0.9,2.9l-1.1,3.6c0,0.1,0,0.1-0.1,0.2
			c-0.2,0.5-0.3,1.1-0.5,1.6c0-0.2,0.2-0.7-0.1-1.3c-0.3-0.6-0.7-1-0.9-1.1c0,0,0,0,0,0l-6.1-3.3l-7.8-4.2c-0.4-0.2-0.9-0.5-1.3-0.7
			L18,15.2z"/>
		<linearGradient id="SVGID_9_" gradientUnits="userSpaceOnUse" x1="2.798" y1="16.0238" x2="62.5625" y2="-3.9414">
			<stop  offset="2.788782e-02" style="stop-color:#64BC54"/>
			<stop  offset="6.989930e-02" style="stop-color:#65BD5A"/>
			<stop  offset="0.1272" style="stop-color:#69BF6C"/>
			<stop  offset="0.1758" style="stop-color:#6DC180"/>
			<stop  offset="0.1856" style="stop-color:#6AC184"/>
			<stop  offset="0.3558" style="stop-color:#3DBFBE"/>
			<stop  offset="0.433" style="stop-color:#40B0C7"/>
			<stop  offset="0.5182" style="stop-color:#459BD5"/>
		</linearGradient>
		<path class="st8" d="M31.1,5.1c0,3.6-2.4,7-6,8.1L7.7,18.3l-1.1,0.3c-0.2-0.8-0.3-1.6-0.3-2.4c0-3.6,2.4-7,6-8.1l18.5-5.4
			c0.1,0.4,0.2,0.9,0.3,1.3C31.1,4.5,31.1,4.8,31.1,5.1z"/>
		<linearGradient id="SVGID_10_" gradientUnits="userSpaceOnUse" x1="2.798" y1="16.0238" x2="62.5625" y2="-3.9414">
			<stop  offset="2.788782e-02" style="stop-color:#64BC54"/>
			<stop  offset="6.989930e-02" style="stop-color:#65BD5A"/>
			<stop  offset="0.1272" style="stop-color:#69BF6C"/>
			<stop  offset="0.1758" style="stop-color:#6DC180"/>
			<stop  offset="0.1856" style="stop-color:#6AC184"/>
			<stop  offset="0.3558" style="stop-color:#3DBFBE"/>
			<stop  offset="0.433" style="stop-color:#40B0C7"/>
			<stop  offset="0.5182" style="stop-color:#459BD5"/>
		</linearGradient>
		<path class="st9" d="M31.1,5.1c0,3.6-2.4,7-6,8.1L7.7,18.3l-1.1,0.3c-0.2-0.8-0.3-1.6-0.3-2.4c0-3.6,2.4-7,6-8.1l18.5-5.4
			c0.1,0.4,0.2,0.9,0.3,1.3C31.1,4.5,31.1,4.8,31.1,5.1z"/>
	</g>
</g>
</svg>
